Coordinates
version=1
nRows=4
nColumns=63
inDegrees=yes

Units are S.I. units (second, meters, Newtons, ...)
If the header above contains a line with 'inDegrees', this indicates whether rotational values are in degrees (yes) or radians (no).

endheader
time	pelvis_tilt	pelvis_list	pelvis_rotation	pelvis_tx	pelvis_ty	pelvis_tz	hip_flexion_r	hip_adduction_r	hip_rotation_r	knee_angle_r	knee_angle_r_beta	ankle_angle_r	subtalar_angle_r	mtp_angle_r	hip_flexion_l	hip_adduction_l	hip_rotation_l	knee_angle_l	knee_angle_l_beta	ankle_angle_l	subtalar_angle_l	mtp_angle_l	L5_S1_Flex_Ext	L5_S1_Lat_Bending	L5_S1_axial_rotation	L4_L5_Flex_Ext	L4_L5_Lat_Bending	L4_L5_axial_rotation	L3_L4_Flex_Ext	L3_L4_Lat_Bending	L3_L4_axial_rotation	L2_L3_Flex_Ext	L2_L3_Lat_Bending	L2_L3_axial_rotation	L1_L2_Flex_Ext	L1_L2_Lat_Bending	L1_L2_axial_rotation	L1_T12_Flex_Ext	L1_T12_Lat_Bending	L1_T12_axial_rotation	Abs_r3	Abs_r2	Abs_r1	Abs_t1	Abs_t2	neck_flexion	neck_bending	neck_rotation	arm_flex_r	arm_add_r	arm_rot_r	elbow_flex_r	pro_sup_r	wrist_flex_r	wrist_dev_r	arm_flex_l	arm_add_l	arm_rot_l	elbow_flex_l	pro_sup_l	wrist_flex_l	wrist_dev_l
      0.00000000	      0.01858755	     -5.41408130	     95.96229513	      0.22893847	      0.73356001	      0.86641835	      9.89047999	     -0.33185752	     -5.55329555	     17.07150551	      0.29795398	     20.19444415	    -17.23142734	      0.00000000	      2.86663674	      0.42176858	     11.84243920	      6.23829306	      0.10887875	     26.59941773	     -7.54905880	      0.00000000	     -0.03381421	      0.22962105	     -0.52360577	     -0.06279638	      0.30539599	     -0.55633113	     -0.05555337	      0.55830061	     -0.55633113	     -0.03864626	      0.55830061	     -0.45815505	     -0.03139988	      0.46824324	     -0.42542969	     -0.01932144	      0.35568300	     -0.39270433	     -0.24153154	      2.59751921	     -2.91213823	      0.00000000	      0.00000000	     24.98095881	     -4.26756722	     -2.36561058	     18.42270377	    -12.06184584	     83.64786721	     45.27182966	     50.56992670	     -1.12711133	      6.97433452	      9.56157485	     -6.37304757	     55.57005620	     41.62920219	     64.52279433	      9.98727699	     12.88330901
      0.01818182	     -0.26353738	     -5.17906692	     95.91421557	      0.22870104	      0.73367916	      0.86559936	      9.52789756	     -0.59213002	     -4.23061224	     16.80373129	      0.29328044	     22.07264308	    -16.07811383	      0.00000000	      2.86202850	      0.83073260	     10.10990724	      7.57055382	      0.13213109	     26.18611186	     -8.50745440	      0.00000000	     -0.01680656	      0.20608666	     -0.50465434	     -0.03121146	      0.27409526	     -0.53619524	     -0.02761149	      0.50107911	     -0.53619524	     -0.01920821	      0.50107911	     -0.44157255	     -0.01560657	      0.42025192	     -0.41003165	     -0.00960327	      0.31922824	     -0.37849076	     -0.12004755	      2.33129355	     -2.80673606	      0.00000000	      0.00000000	     24.79115298	     -3.04331776	     -1.19713150	     17.43462381	    -11.92018821	     82.16092154	     44.89226115	     47.96694519	     -0.87879856	      7.65905129	      9.52173047	     -6.42510398	     57.73562431	     40.90753320	     65.85253178	      9.49422089	     12.72729057
      0.03636364	     -0.39615785	     -5.06867159	     95.94148921	      0.22847972	      0.73392316	      0.86535000	      9.61695289	     -0.78195283	     -3.69385216	     17.22968951	      0.30071481	     23.16289839	    -15.28607158	      0.00000000	      2.97044470	      0.90579498	      7.05035069	      8.45521400	      0.14757132	     26.31912490	     -6.51927222	      0.00000000	     -0.00144300	      0.19502637	     -0.49948934	     -0.00267980	      0.25938507	     -0.53070742	     -0.00237071	      0.47418711	     -0.53070742	     -0.00164921	      0.47418711	     -0.43705317	     -0.00133997	      0.39769777	     -0.40583509	     -0.00082453	      0.30209584	     -0.37461700	     -0.01030721	      2.20617728	     -2.77800984	      0.00000000	      0.00000000	     24.71824149	     -2.58337639	     -0.95652189	     17.48251351	    -11.91273432	     84.03507992	     45.27756463	     30.18353635	     -1.84227316	      8.94624491	      9.69184951	     -6.38299675	     59.66651597	     40.09370233	     67.63587635	      9.14237133	     11.47879152
      0.05454545	     -0.41268018	     -4.95438534	     96.18033696	      0.22777304	      0.73431634	      0.86471723	      9.48547345	     -0.83452269	     -3.34071403	     17.37079620	      0.30317759	     23.45799728	    -15.19496535	      0.00000000	      2.92057243	      0.98700484	      6.35001805	      8.85184216	      0.15449379	     25.92627393	     -6.91066853	      0.00000000	      0.00577252	      0.19732281	     -0.54540120	      0.01072015	      0.26243934	     -0.57948877	      0.00948367	      0.47977069	     -0.57948877	      0.00659741	      0.47977069	     -0.47722605	      0.00536036	      0.40238068	     -0.44313847	      0.00329842	      0.30565304	     -0.40905090	      0.04123253	      2.23215514	     -3.03335783	      0.00000000	      0.00000000	     24.70701146	     -2.41365199	     -0.91165408	     17.35636001	    -11.90446114	     84.22982013	     45.12147902	     30.16600296	     -1.86889780	      8.99606002	      9.51716859	     -6.22107822	     60.06419423	     39.68786949	     67.83749270	      9.00372714	     11.64042232
